<mxfile host="app.diagrams.net" agent="Mozilla/5.0 (Windows NT 10.0; Win64; x64; rv:133.0) Gecko/20100101 Firefox/133.0" version="24.9.3">
  <diagram id="R2lEEEUBdFMjLlhIrx00" name="Page-1">
    <mxGraphModel dx="2140" dy="567" grid="1" gridSize="10" guides="1" tooltips="1" connect="1" arrows="1" fold="1" page="1" pageScale="1" pageWidth="850" pageHeight="1100" math="0" shadow="0" extFonts="Permanent Marker^https://fonts.googleapis.com/css?family=Permanent+Marker">
      <root>
        <mxCell id="0" />
        <mxCell id="1" parent="0" />
        <mxCell id="D6m9lH9ZA65K1LhXCE7x-19" value="" style="edgeStyle=orthogonalEdgeStyle;rounded=0;orthogonalLoop=1;jettySize=auto;html=1;" edge="1" parent="1" source="D6m9lH9ZA65K1LhXCE7x-14" target="D6m9lH9ZA65K1LhXCE7x-18">
          <mxGeometry relative="1" as="geometry" />
        </mxCell>
        <mxCell id="D6m9lH9ZA65K1LhXCE7x-23" value="" style="edgeStyle=orthogonalEdgeStyle;rounded=0;orthogonalLoop=1;jettySize=auto;html=1;" edge="1" parent="1" source="D6m9lH9ZA65K1LhXCE7x-14" target="D6m9lH9ZA65K1LhXCE7x-22">
          <mxGeometry relative="1" as="geometry" />
        </mxCell>
        <mxCell id="D6m9lH9ZA65K1LhXCE7x-42" value="" style="edgeStyle=orthogonalEdgeStyle;rounded=0;orthogonalLoop=1;jettySize=auto;html=1;" edge="1" parent="1" source="D6m9lH9ZA65K1LhXCE7x-14" target="D6m9lH9ZA65K1LhXCE7x-41">
          <mxGeometry relative="1" as="geometry" />
        </mxCell>
        <mxCell id="D6m9lH9ZA65K1LhXCE7x-47" style="edgeStyle=orthogonalEdgeStyle;rounded=0;orthogonalLoop=1;jettySize=auto;html=1;entryX=1;entryY=0.5;entryDx=0;entryDy=0;" edge="1" parent="1" source="D6m9lH9ZA65K1LhXCE7x-14" target="D6m9lH9ZA65K1LhXCE7x-45">
          <mxGeometry relative="1" as="geometry" />
        </mxCell>
        <mxCell id="D6m9lH9ZA65K1LhXCE7x-14" value="&lt;div&gt;AIRPLANE&lt;/div&gt;" style="whiteSpace=wrap;html=1;align=center;" vertex="1" parent="1">
          <mxGeometry x="80" y="140" width="100" height="40" as="geometry" />
        </mxCell>
        <mxCell id="D6m9lH9ZA65K1LhXCE7x-21" value="" style="edgeStyle=orthogonalEdgeStyle;rounded=0;orthogonalLoop=1;jettySize=auto;html=1;" edge="1" parent="1" source="D6m9lH9ZA65K1LhXCE7x-15" target="D6m9lH9ZA65K1LhXCE7x-18">
          <mxGeometry relative="1" as="geometry" />
        </mxCell>
        <mxCell id="D6m9lH9ZA65K1LhXCE7x-15" value="PLANE_TYPE" style="whiteSpace=wrap;html=1;align=center;" vertex="1" parent="1">
          <mxGeometry x="480" y="140" width="100" height="40" as="geometry" />
        </mxCell>
        <mxCell id="D6m9lH9ZA65K1LhXCE7x-24" value="" style="edgeStyle=orthogonalEdgeStyle;rounded=0;orthogonalLoop=1;jettySize=auto;html=1;" edge="1" parent="1" source="D6m9lH9ZA65K1LhXCE7x-16" target="D6m9lH9ZA65K1LhXCE7x-22">
          <mxGeometry relative="1" as="geometry" />
        </mxCell>
        <mxCell id="D6m9lH9ZA65K1LhXCE7x-16" value="HANGAR" style="whiteSpace=wrap;html=1;align=center;" vertex="1" parent="1">
          <mxGeometry x="80" y="310" width="100" height="40" as="geometry" />
        </mxCell>
        <mxCell id="D6m9lH9ZA65K1LhXCE7x-27" style="edgeStyle=orthogonalEdgeStyle;rounded=0;orthogonalLoop=1;jettySize=auto;html=1;" edge="1" parent="1" source="D6m9lH9ZA65K1LhXCE7x-17" target="D6m9lH9ZA65K1LhXCE7x-14">
          <mxGeometry relative="1" as="geometry" />
        </mxCell>
        <mxCell id="D6m9lH9ZA65K1LhXCE7x-17" value="REG#" style="ellipse;whiteSpace=wrap;html=1;align=center;" vertex="1" parent="1">
          <mxGeometry x="90" y="40" width="100" height="40" as="geometry" />
        </mxCell>
        <mxCell id="D6m9lH9ZA65K1LhXCE7x-18" value="OF_TYPE" style="shape=rhombus;perimeter=rhombusPerimeter;whiteSpace=wrap;html=1;align=center;" vertex="1" parent="1">
          <mxGeometry x="270" y="130" width="120" height="60" as="geometry" />
        </mxCell>
        <mxCell id="D6m9lH9ZA65K1LhXCE7x-22" value="STORED_IN" style="shape=rhombus;perimeter=rhombusPerimeter;whiteSpace=wrap;html=1;align=center;" vertex="1" parent="1">
          <mxGeometry x="70" y="210" width="120" height="60" as="geometry" />
        </mxCell>
        <mxCell id="D6m9lH9ZA65K1LhXCE7x-26" style="edgeStyle=orthogonalEdgeStyle;rounded=0;orthogonalLoop=1;jettySize=auto;html=1;" edge="1" parent="1" source="D6m9lH9ZA65K1LhXCE7x-25" target="D6m9lH9ZA65K1LhXCE7x-15">
          <mxGeometry relative="1" as="geometry" />
        </mxCell>
        <mxCell id="D6m9lH9ZA65K1LhXCE7x-25" value="MODEL" style="ellipse;whiteSpace=wrap;html=1;align=center;" vertex="1" parent="1">
          <mxGeometry x="430" y="30" width="100" height="40" as="geometry" />
        </mxCell>
        <mxCell id="D6m9lH9ZA65K1LhXCE7x-28" value="CAPACITY" style="ellipse;whiteSpace=wrap;html=1;align=center;" vertex="1" parent="1">
          <mxGeometry x="530" y="30" width="100" height="40" as="geometry" />
        </mxCell>
        <mxCell id="D6m9lH9ZA65K1LhXCE7x-33" style="edgeStyle=orthogonalEdgeStyle;rounded=0;orthogonalLoop=1;jettySize=auto;html=1;entryX=1;entryY=0.5;entryDx=0;entryDy=0;" edge="1" parent="1" source="D6m9lH9ZA65K1LhXCE7x-29" target="D6m9lH9ZA65K1LhXCE7x-15">
          <mxGeometry relative="1" as="geometry" />
        </mxCell>
        <mxCell id="D6m9lH9ZA65K1LhXCE7x-29" value="WEIGHT" style="ellipse;whiteSpace=wrap;html=1;align=center;" vertex="1" parent="1">
          <mxGeometry x="650" y="80" width="100" height="40" as="geometry" />
        </mxCell>
        <mxCell id="D6m9lH9ZA65K1LhXCE7x-30" style="edgeStyle=orthogonalEdgeStyle;rounded=0;orthogonalLoop=1;jettySize=auto;html=1;entryX=0.86;entryY=-0.05;entryDx=0;entryDy=0;entryPerimeter=0;" edge="1" parent="1" source="D6m9lH9ZA65K1LhXCE7x-28" target="D6m9lH9ZA65K1LhXCE7x-15">
          <mxGeometry relative="1" as="geometry" />
        </mxCell>
        <mxCell id="D6m9lH9ZA65K1LhXCE7x-39" value="" style="edgeStyle=orthogonalEdgeStyle;rounded=0;orthogonalLoop=1;jettySize=auto;html=1;" edge="1" parent="1" source="D6m9lH9ZA65K1LhXCE7x-34" target="D6m9lH9ZA65K1LhXCE7x-16">
          <mxGeometry relative="1" as="geometry" />
        </mxCell>
        <mxCell id="D6m9lH9ZA65K1LhXCE7x-34" value="NUMBER" style="ellipse;whiteSpace=wrap;html=1;align=center;" vertex="1" parent="1">
          <mxGeometry y="390" width="100" height="40" as="geometry" />
        </mxCell>
        <mxCell id="D6m9lH9ZA65K1LhXCE7x-38" value="" style="edgeStyle=orthogonalEdgeStyle;rounded=0;orthogonalLoop=1;jettySize=auto;html=1;" edge="1" parent="1" source="D6m9lH9ZA65K1LhXCE7x-35" target="D6m9lH9ZA65K1LhXCE7x-16">
          <mxGeometry relative="1" as="geometry" />
        </mxCell>
        <mxCell id="D6m9lH9ZA65K1LhXCE7x-35" value="CAPACITY" style="ellipse;whiteSpace=wrap;html=1;align=center;" vertex="1" parent="1">
          <mxGeometry x="140" y="390" width="100" height="40" as="geometry" />
        </mxCell>
        <mxCell id="D6m9lH9ZA65K1LhXCE7x-37" value="" style="edgeStyle=orthogonalEdgeStyle;rounded=0;orthogonalLoop=1;jettySize=auto;html=1;" edge="1" parent="1" source="D6m9lH9ZA65K1LhXCE7x-36" target="D6m9lH9ZA65K1LhXCE7x-16">
          <mxGeometry relative="1" as="geometry" />
        </mxCell>
        <mxCell id="D6m9lH9ZA65K1LhXCE7x-36" value="LOCATION" style="ellipse;whiteSpace=wrap;html=1;align=center;" vertex="1" parent="1">
          <mxGeometry x="230" y="310" width="100" height="40" as="geometry" />
        </mxCell>
        <mxCell id="D6m9lH9ZA65K1LhXCE7x-43" value="" style="edgeStyle=orthogonalEdgeStyle;rounded=0;orthogonalLoop=1;jettySize=auto;html=1;" edge="1" parent="1" source="D6m9lH9ZA65K1LhXCE7x-40" target="D6m9lH9ZA65K1LhXCE7x-41">
          <mxGeometry relative="1" as="geometry" />
        </mxCell>
        <mxCell id="D6m9lH9ZA65K1LhXCE7x-40" value="OWNER" style="whiteSpace=wrap;html=1;align=center;" vertex="1" parent="1">
          <mxGeometry x="-280" y="140" width="100" height="40" as="geometry" />
        </mxCell>
        <mxCell id="D6m9lH9ZA65K1LhXCE7x-41" value="OWNS" style="shape=rhombus;perimeter=rhombusPerimeter;whiteSpace=wrap;html=1;align=center;" vertex="1" parent="1">
          <mxGeometry x="-110" y="130" width="120" height="60" as="geometry" />
        </mxCell>
        <mxCell id="D6m9lH9ZA65K1LhXCE7x-46" value="" style="edgeStyle=orthogonalEdgeStyle;rounded=0;orthogonalLoop=1;jettySize=auto;html=1;" edge="1" parent="1" source="D6m9lH9ZA65K1LhXCE7x-44" target="D6m9lH9ZA65K1LhXCE7x-45">
          <mxGeometry relative="1" as="geometry" />
        </mxCell>
        <mxCell id="D6m9lH9ZA65K1LhXCE7x-44" value="EMPLOYEE" style="whiteSpace=wrap;html=1;align=center;" vertex="1" parent="1">
          <mxGeometry x="-280" y="260" width="100" height="40" as="geometry" />
        </mxCell>
        <mxCell id="D6m9lH9ZA65K1LhXCE7x-45" value="MAINTAIN" style="shape=rhombus;perimeter=rhombusPerimeter;whiteSpace=wrap;html=1;align=center;" vertex="1" parent="1">
          <mxGeometry x="-110" y="250" width="120" height="60" as="geometry" />
        </mxCell>
        <mxCell id="D6m9lH9ZA65K1LhXCE7x-49" value="" style="edgeStyle=orthogonalEdgeStyle;rounded=0;orthogonalLoop=1;jettySize=auto;html=1;" edge="1" parent="1" source="D6m9lH9ZA65K1LhXCE7x-48" target="D6m9lH9ZA65K1LhXCE7x-41">
          <mxGeometry relative="1" as="geometry" />
        </mxCell>
        <mxCell id="D6m9lH9ZA65K1LhXCE7x-48" value="PDATE" style="ellipse;whiteSpace=wrap;html=1;align=center;" vertex="1" parent="1">
          <mxGeometry x="-110" y="30" width="100" height="40" as="geometry" />
        </mxCell>
        <mxCell id="D6m9lH9ZA65K1LhXCE7x-51" value="" style="edgeStyle=orthogonalEdgeStyle;rounded=0;orthogonalLoop=1;jettySize=auto;html=1;" edge="1" parent="1" target="D6m9lH9ZA65K1LhXCE7x-45">
          <mxGeometry relative="1" as="geometry">
            <mxPoint x="-100" y="360" as="sourcePoint" />
          </mxGeometry>
        </mxCell>
        <mxCell id="D6m9lH9ZA65K1LhXCE7x-52" value="SERVICE" style="whiteSpace=wrap;html=1;align=center;" vertex="1" parent="1">
          <mxGeometry x="-150" y="350" width="100" height="40" as="geometry" />
        </mxCell>
      </root>
    </mxGraphModel>
  </diagram>
</mxfile>
